Motion_kv08_l
version=1
nRows=6
nColumns=43
inDegrees=yes
endheader
time	pelvis_tilt	pelvis_list	pelvis_rotation	pelvis_tx	pelvis_ty	pelvis_tz	hip_flexion_r	hip_adduction_r	hip_rotation_r	knee_angle_r	ankle_angle_r	subtalar_angle_r	mtp_angle_r	hip_flexion_l	hip_adduction_l	hip_rotation_l	knee_angle_l	ankle_angle_l	subtalar_angle_l	mtp_angle_l	lumbar_extension	lumbar_bending	lumbar_rotation	neck_flexion	neck_lateral_bending	neck_rotation	arm_flex_r	arm_add_r	arm_rot_r	elbow_flex_r	pro_sup_r	wrist_flex_r	wrist_dev_r	hand_finger_flex_r	arm_flex_l	arm_add_l	arm_rot_l	elbow_flex_l	pro_sup_l	wrist_flex_l	wrist_dev_l	hand_finger_flex_l
      0.42500000	      3.76707326	    -60.98631069	     96.70962960	      0.02500338	      1.32503581	      1.37966087	     64.59593753	     -2.97164107	     -9.16560725	    -69.28999989	      9.41026040	    -18.49137351	    -12.02783463	     61.58760364	     -2.69919448	     -1.76964881	    -70.83765454	     27.84044379	     -0.57685365	    -19.51733769	    -34.08977830	      0.72580631	     -2.45955874	     59.99999993	      1.76714691	      2.91972522	    214.86763623	   -146.26383505	    186.43711247	     82.58894182	    153.08190571	    -62.68944171	    -21.98737969	     82.58571897	   -144.47644782	   -140.99088447	   -172.41637949	     84.03529164	    162.09478013	    -71.58806805	    -13.91675462	     90.00021046
      0.42750000	      3.72587459	    -60.85468161	     96.70676758	      0.02495519	      1.32942298	      1.37702903	     65.32295398	     -3.10805431	     -9.22996261	    -71.07475294	     10.19407427	    -18.88935289	    -11.88494942	     62.13584815	     -2.60339708	     -1.59544890	    -72.45969685	     28.28974336	     -0.54989632	    -19.49413360	    -34.58104461	      0.77386609	     -2.51293085	     59.99999993	      1.83239235	      3.00198323	    215.55471052	   -146.58411568	    186.63389722	     81.85590218	    153.16877628	    -62.54403144	    -21.96837287	     82.65002883	   -143.81453800	   -141.08053157	   -172.04202705	     83.34687982	    162.14479669	    -71.37805825	    -13.97362445	     90.00021046
      0.43000000	      3.70013775	    -60.80142005	     96.72587625	      0.02488932	      1.33365961	      1.37455638	     66.16264907	     -3.25801782	     -9.27990436	    -72.89770014	     11.05006898	    -19.11282634	    -11.71948932	     62.80059066	     -2.49739310	     -1.41952677	    -74.11914866	     28.72108168	     -0.48542849	    -19.47255268	    -34.96484520	      0.83088810	     -2.56491792	     59.99999993	      1.85987009	      3.07143637	    216.22882722	   -146.82914504	    186.91440549	     81.13478877	    153.27228264	    -62.50445954	    -21.95570013	     82.71368361	   -143.15610149	   -141.11785574	   -171.56461367	     82.65489835	    162.11088933	    -71.25730352	    -13.98595450	     90.00021046
      0.43250000	      3.69863096	    -61.01461549	     96.86543183	      0.02461616	      1.33741883	      1.37271651	     67.35574692	     -3.57208901	     -9.36380705	    -74.86551935	     12.07632660	    -18.71790117	    -11.40998509	     63.82188520	     -2.29674611	     -1.22579854	    -75.83832537	     29.08820981	     -0.17386154	    -19.49194963	    -35.03266089	      0.92926094	     -2.68616606	     59.99999993	      1.93599036	      3.15532227	    216.79696577	   -146.97593374	    187.28403905	     80.47699645	    153.27612534	    -62.98037864	    -21.82929616	     82.87890862	   -142.51377373	   -141.00088286	   -170.76592772	     81.99612489	    161.68791164	    -71.56261738	    -13.83813812	     90.00021046
      0.43500000	      3.70294699	    -60.87935965	     96.82471746	      0.02471884	      1.34176878	      1.37004967	     68.09498413	     -3.58157234	     -9.34608993	    -76.58364524	     12.80676627	    -18.92932821	    -11.27141761	     64.40383870	     -2.25625577	     -1.06281606	    -77.47530462	     29.44069944	     -0.25032883	    -19.45855615	    -35.49277146	      0.97199989	     -2.64337524	     59.99999993	      1.87847801	      3.18314736	    217.52636859	   -147.26065564	    187.59235310	     79.66326955	    153.32626929	    -62.87370311	    -21.80710756	     82.89511039	   -141.82157959	   -141.18839695	   -170.39920759	     81.17203072	    161.63641508	    -71.46800271	    -13.81391217	     90.00021046
      0.43750000	      3.70911434	    -60.99648750	     96.91083475	      0.02463646	      1.34555638	      1.36811300	     69.19091944	     -3.79838729	     -9.37777956	    -78.49325771	     13.82717288	    -18.43955930	    -10.95688217	     65.34544528	     -2.12663155	     -0.90158296	    -79.20709921	     29.77520551	      0.05592716	    -19.41561499	    -35.65631167	      1.04427085	     -2.71774857	     59.99999993	      1.92789090	      3.28630897	    218.18313140	   -147.29995597	    188.17576497	     78.97704261	    153.16863044	    -63.28628678	    -21.70098892	     82.89804082	   -141.06353821	   -140.97263607	   -169.42252229	     80.43902387	    161.17481247	    -71.92198349	    -13.64277990	     90.00021046
